<?xml version="1.0" encoding="UTF-8"?>
<!DOCTYPE svg PUBLIC "-//W3C//DTD SVG 1.1//EN" "http://www.w3.org/Graphics/SVG/1.1/DTD/svg11.dtd">
<!-- Creator: CorelDRAW X7 -->
<svg xmlns="http://www.w3.org/2000/svg" xml:space="preserve" width="180mm" height="254.571mm" version="1.1" style="shape-rendering:geometricPrecision; text-rendering:geometricPrecision; image-rendering:optimizeQuality; fill-rule:evenodd; clip-rule:evenodd"
viewBox="0 0 18000 25457"
 xmlns:xlink="http://www.w3.org/1999/xlink">
 <defs>
  <style type="text/css">
   <![CDATA[
    .fil0 {fill:#FEFEFE}
   ]]>
  </style>
 </defs>
 <g id="Слой_x0020_1">
  <metadata id="CorelCorpID_0Corel-Layer"/>
  <g id="_679186192">
   <path class="fil0" d="M8833 15855c-476,294 -1169,140 -1454,-322l-2061 -3340c-290,-469 -144,-1087 325,-1376l-141 -229 141 229 1803 -1113 -1587 -2572 -1802 1112 0 0c-1767,1091 -1710,3947 140,6946 847,1372 1913,2463 3001,3073 642,359 1273,539 1862,539 494,0 958,-127 1371,-382l1734 -1070 -1587 -2572 -1745 1077zm1315 2107c-937,579 -1978,228 -2686,-169 -1011,-565 -2007,-1590 -2807,-2886 -1683,-2729 -1813,-5281 -315,-6205l-141 -229 141 229 1343 -830 1022 1656 -1344 831 0 0c-722,445 -947,1395 -501,2117l2060 3339c441,715 1467,947 2195,498l1287 -794 1022 1656 -1276 787z"/>
   <path class="fil0" d="M10688 11010c399,612 495,1363 263,2059l511 170c284,-852 166,-1772 -323,-2523 -504,-776 -1358,-1271 -2284,-1326l-32 537c768,45 1447,440 1865,1083z"/>
   <path class="fil0" d="M9219 7609l-62 535c1250,144 2360,830 3044,1881 664,1020 852,2276 516,3446l517 148c379,-1320 167,-2737 -581,-3887 -773,-1187 -2025,-1961 -3434,-2123z"/>
   <path class="fil0" d="M13994 8859c-1001,-1538 -2617,-2566 -4435,-2818l-74 533c1663,231 3142,1171 4057,2579 897,1377 1166,3079 739,4668l519 140c468,-1737 173,-3596 -806,-5102z"/>
  </g>
 </g>
</svg>
